<mxfile host="app.diagrams.net" modified="2022-04-07T18:46:51.992Z" agent="5.0 (Windows NT 10.0; Win64; x64) AppleWebKit/537.36 (KHTML, like Gecko) Chrome/100.0.4896.75 Safari/537.36" etag="erFhXHWZ5dpNdJA5tZcx" version="17.4.1" type="github" pages="2">
  <diagram id="prjZX4wkgA0BgJ7s4mOM" name="Page-1">
    <mxGraphModel dx="1298" dy="750" grid="1" gridSize="10" guides="1" tooltips="1" connect="1" arrows="1" fold="1" page="1" pageScale="1" pageWidth="827" pageHeight="1169" math="0" shadow="0">
      <root>
        <mxCell id="0" />
        <mxCell id="1" parent="0" />
        <mxCell id="6n9kSi0VYIb2uczXsFoc-1" value="IDS ConnectorÂ " style="swimlane;dashed=1;" parent="1" vertex="1">
          <mxGeometry x="409" y="281" width="770" height="520" as="geometry">
            <mxRectangle x="310" y="310" width="130" height="23" as="alternateBounds" />
          </mxGeometry>
        </mxCell>
        <mxCell id="6n9kSi0VYIb2uczXsFoc-8" value="UC Container" style="swimlane;fontSize=12;startSize=23;" parent="6n9kSi0VYIb2uczXsFoc-1" vertex="1">
          <mxGeometry x="30" y="280" width="360" height="200" as="geometry" />
        </mxCell>
        <mxCell id="6n9kSi0VYIb2uczXsFoc-40" value="" style="endArrow=classic;html=1;rounded=0;fontSize=12;fillColor=#00CC00;exitX=0.75;exitY=0;exitDx=0;exitDy=0;entryX=0.75;entryY=1;entryDx=0;entryDy=0;" parent="6n9kSi0VYIb2uczXsFoc-8" source="6n9kSi0VYIb2uczXsFoc-25" target="6n9kSi0VYIb2uczXsFoc-26" edge="1">
          <mxGeometry width="50" height="50" relative="1" as="geometry">
            <mxPoint x="123" y="60" as="sourcePoint" />
            <mxPoint x="173" y="10" as="targetPoint" />
          </mxGeometry>
        </mxCell>
        <mxCell id="6n9kSi0VYIb2uczXsFoc-69" value="8b" style="edgeLabel;html=1;align=center;verticalAlign=middle;resizable=0;points=[];fontSize=16;fontStyle=1" parent="6n9kSi0VYIb2uczXsFoc-40" vertex="1" connectable="0">
          <mxGeometry x="-0.1062" y="-1" relative="1" as="geometry">
            <mxPoint x="11" y="11" as="offset" />
          </mxGeometry>
        </mxCell>
        <mxCell id="6n9kSi0VYIb2uczXsFoc-15" value="&lt;font face=&quot;Verdana&quot; color=&quot;#ffffff&quot; size=&quot;1&quot;&gt;&lt;b style=&quot;font-size: 12px&quot;&gt;PEP&lt;/b&gt;&lt;/font&gt;" style="rounded=1;whiteSpace=wrap;html=1;fillColor=#E2001A;strokeColor=#E2001A;" parent="6n9kSi0VYIb2uczXsFoc-8" vertex="1">
          <mxGeometry x="260" y="30" width="90" height="40" as="geometry" />
        </mxCell>
        <mxCell id="6n9kSi0VYIb2uczXsFoc-16" value="&lt;b style=&quot;color: rgb(255 , 255 , 255) ; font-family: &amp;#34;verdana&amp;#34;&quot;&gt;&lt;font style=&quot;font-size: 12px&quot;&gt;PDP&lt;/font&gt;&lt;/b&gt;" style="rounded=1;whiteSpace=wrap;html=1;fillColor=#179C7D;strokeColor=#179C7D;" parent="6n9kSi0VYIb2uczXsFoc-8" vertex="1">
          <mxGeometry x="130" y="120" width="90" height="40" as="geometry" />
        </mxCell>
        <mxCell id="6n9kSi0VYIb2uczXsFoc-23" value="&lt;b style=&quot;color: rgb(255 , 255 , 255) ; font-family: &amp;#34;verdana&amp;#34;&quot;&gt;&lt;font style=&quot;font-size: 12px&quot;&gt;PIP&lt;/font&gt;&lt;/b&gt;" style="rounded=1;whiteSpace=wrap;html=1;fillColor=#F29400;strokeColor=#179C7D;" parent="6n9kSi0VYIb2uczXsFoc-8" vertex="1">
          <mxGeometry x="20" y="28" width="90" height="40" as="geometry" />
        </mxCell>
        <mxCell id="6n9kSi0VYIb2uczXsFoc-25" value="&lt;b style=&quot;color: rgb(255 , 255 , 255) ; font-family: &amp;#34;verdana&amp;#34;&quot;&gt;&lt;font style=&quot;font-size: 12px&quot;&gt;PXP&lt;/font&gt;&lt;/b&gt;" style="rounded=1;whiteSpace=wrap;html=1;fillColor=#771C2C;strokeColor=#771C2C;" parent="6n9kSi0VYIb2uczXsFoc-8" vertex="1">
          <mxGeometry x="130" y="30" width="90" height="40" as="geometry" />
        </mxCell>
        <mxCell id="6n9kSi0VYIb2uczXsFoc-26" value="&lt;b style=&quot;color: rgb(255 , 255 , 255) ; font-family: &amp;#34;verdana&amp;#34;&quot;&gt;&lt;font style=&quot;font-size: 12px&quot;&gt;Log PXP&lt;/font&gt;&lt;/b&gt;" style="rounded=1;whiteSpace=wrap;html=1;fillColor=#771C2C;strokeColor=#771C2C;" parent="6n9kSi0VYIb2uczXsFoc-8" vertex="1">
          <mxGeometry x="130" y="-192" width="90" height="40" as="geometry" />
        </mxCell>
        <mxCell id="6n9kSi0VYIb2uczXsFoc-36" value="" style="endArrow=classic;html=1;rounded=0;fontSize=12;fillColor=#00CC00;exitX=0;exitY=0.25;exitDx=0;exitDy=0;entryX=0.75;entryY=1;entryDx=0;entryDy=0;" parent="6n9kSi0VYIb2uczXsFoc-8" source="6n9kSi0VYIb2uczXsFoc-16" target="6n9kSi0VYIb2uczXsFoc-23" edge="1">
          <mxGeometry width="50" height="50" relative="1" as="geometry">
            <mxPoint x="123" y="60" as="sourcePoint" />
            <mxPoint x="173" y="10" as="targetPoint" />
            <Array as="points">
              <mxPoint x="88" y="130" />
            </Array>
          </mxGeometry>
        </mxCell>
        <mxCell id="6n9kSi0VYIb2uczXsFoc-51" value="&lt;b&gt;4a&lt;/b&gt;" style="edgeLabel;html=1;align=center;verticalAlign=middle;resizable=0;points=[];fontSize=16;" parent="6n9kSi0VYIb2uczXsFoc-36" vertex="1" connectable="0">
          <mxGeometry x="0.1812" y="-1" relative="1" as="geometry">
            <mxPoint x="10" y="-2" as="offset" />
          </mxGeometry>
        </mxCell>
        <mxCell id="6n9kSi0VYIb2uczXsFoc-39" value="" style="endArrow=classic;html=1;rounded=0;fontSize=12;fillColor=#00CC00;exitX=0.75;exitY=0;exitDx=0;exitDy=0;entryX=0.75;entryY=1;entryDx=0;entryDy=0;" parent="6n9kSi0VYIb2uczXsFoc-8" source="6n9kSi0VYIb2uczXsFoc-16" target="6n9kSi0VYIb2uczXsFoc-25" edge="1">
          <mxGeometry width="50" height="50" relative="1" as="geometry">
            <mxPoint x="123" y="60" as="sourcePoint" />
            <mxPoint x="173" y="10" as="targetPoint" />
          </mxGeometry>
        </mxCell>
        <mxCell id="6n9kSi0VYIb2uczXsFoc-68" value="&lt;b&gt;&lt;font style=&quot;font-size: 16px&quot;&gt;8a&lt;/font&gt;&lt;/b&gt;" style="edgeLabel;html=1;align=center;verticalAlign=middle;resizable=0;points=[];fontSize=14;" parent="6n9kSi0VYIb2uczXsFoc-39" vertex="1" connectable="0">
          <mxGeometry x="-0.0133" y="-1" relative="1" as="geometry">
            <mxPoint x="10" as="offset" />
          </mxGeometry>
        </mxCell>
        <mxCell id="6n9kSi0VYIb2uczXsFoc-41" value="" style="endArrow=classic;html=1;rounded=0;fontSize=12;fillColor=#00CC00;exitX=0.25;exitY=1;exitDx=0;exitDy=0;entryX=0.25;entryY=0;entryDx=0;entryDy=0;" parent="6n9kSi0VYIb2uczXsFoc-8" source="6n9kSi0VYIb2uczXsFoc-26" target="6n9kSi0VYIb2uczXsFoc-25" edge="1">
          <mxGeometry width="50" height="50" relative="1" as="geometry">
            <mxPoint x="123" y="60" as="sourcePoint" />
            <mxPoint x="173" y="10" as="targetPoint" />
          </mxGeometry>
        </mxCell>
        <mxCell id="6n9kSi0VYIb2uczXsFoc-72" value="&lt;font style=&quot;font-size: 16px&quot;&gt;&lt;b&gt;9b&lt;/b&gt;&lt;/font&gt;" style="edgeLabel;html=1;align=center;verticalAlign=middle;resizable=0;points=[];fontSize=14;" parent="6n9kSi0VYIb2uczXsFoc-41" vertex="1" connectable="0">
          <mxGeometry x="-0.2051" y="-1" relative="1" as="geometry">
            <mxPoint x="13" y="39" as="offset" />
          </mxGeometry>
        </mxCell>
        <mxCell id="6n9kSi0VYIb2uczXsFoc-44" value="" style="endArrow=classic;html=1;rounded=0;fontSize=12;fillColor=#00CC00;exitX=0.25;exitY=1;exitDx=0;exitDy=0;entryX=0.25;entryY=0;entryDx=0;entryDy=0;" parent="6n9kSi0VYIb2uczXsFoc-8" source="6n9kSi0VYIb2uczXsFoc-25" target="6n9kSi0VYIb2uczXsFoc-16" edge="1">
          <mxGeometry width="50" height="50" relative="1" as="geometry">
            <mxPoint x="123" y="60" as="sourcePoint" />
            <mxPoint x="173" y="10" as="targetPoint" />
          </mxGeometry>
        </mxCell>
        <mxCell id="6n9kSi0VYIb2uczXsFoc-73" value="9c" style="edgeLabel;html=1;align=center;verticalAlign=middle;resizable=0;points=[];fontSize=16;fontStyle=1" parent="6n9kSi0VYIb2uczXsFoc-44" vertex="1" connectable="0">
          <mxGeometry x="-0.28" relative="1" as="geometry">
            <mxPoint x="11" y="8" as="offset" />
          </mxGeometry>
        </mxCell>
        <mxCell id="6n9kSi0VYIb2uczXsFoc-45" value="" style="endArrow=classic;html=1;rounded=0;fontSize=12;fillColor=#00CC00;exitX=0.25;exitY=1;exitDx=0;exitDy=0;entryX=1;entryY=0.25;entryDx=0;entryDy=0;" parent="6n9kSi0VYIb2uczXsFoc-8" source="6n9kSi0VYIb2uczXsFoc-15" target="6n9kSi0VYIb2uczXsFoc-16" edge="1">
          <mxGeometry x="-0.1856" y="10" width="50" height="50" relative="1" as="geometry">
            <mxPoint x="123" y="60" as="sourcePoint" />
            <mxPoint x="173" y="10" as="targetPoint" />
            <Array as="points">
              <mxPoint x="283" y="130" />
            </Array>
            <mxPoint as="offset" />
          </mxGeometry>
        </mxCell>
        <mxCell id="6n9kSi0VYIb2uczXsFoc-74" value="3b" style="edgeLabel;html=1;align=center;verticalAlign=middle;resizable=0;points=[];fontSize=16;fontStyle=1" parent="6n9kSi0VYIb2uczXsFoc-45" vertex="1" connectable="0">
          <mxGeometry x="-0.3007" y="1" relative="1" as="geometry">
            <mxPoint x="12" y="-5" as="offset" />
          </mxGeometry>
        </mxCell>
        <mxCell id="6n9kSi0VYIb2uczXsFoc-47" value="" style="endArrow=classic;html=1;rounded=0;fontSize=12;fillColor=#00CC00;exitX=1;exitY=0.75;exitDx=0;exitDy=0;entryX=0.75;entryY=1;entryDx=0;entryDy=0;" parent="6n9kSi0VYIb2uczXsFoc-8" edge="1">
          <mxGeometry x="0.4772" y="-22" width="50" height="50" relative="1" as="geometry">
            <mxPoint x="220" y="150" as="sourcePoint" />
            <mxPoint x="327.5" y="70" as="targetPoint" />
            <Array as="points">
              <mxPoint x="328" y="150" />
            </Array>
            <mxPoint as="offset" />
          </mxGeometry>
        </mxCell>
        <mxCell id="6n9kSi0VYIb2uczXsFoc-75" value="&lt;b&gt;6a&lt;/b&gt;" style="edgeLabel;html=1;align=center;verticalAlign=middle;resizable=0;points=[];fontSize=16;" parent="6n9kSi0VYIb2uczXsFoc-47" vertex="1" connectable="0">
          <mxGeometry x="0.4148" y="-1" relative="1" as="geometry">
            <mxPoint x="11" y="-17" as="offset" />
          </mxGeometry>
        </mxCell>
        <mxCell id="6n9kSi0VYIb2uczXsFoc-34" value="" style="edgeStyle=orthogonalEdgeStyle;rounded=0;orthogonalLoop=1;jettySize=auto;html=1;exitX=0.238;exitY=0.988;exitDx=0;exitDy=0;entryX=0.232;entryY=0.005;entryDx=0;entryDy=0;fontSize=12;fillColor=#00CC00;exitPerimeter=0;entryPerimeter=0;" parent="6n9kSi0VYIb2uczXsFoc-8" edge="1">
          <mxGeometry x="-0.465" y="-9" relative="1" as="geometry">
            <mxPoint x="42.41999999999996" y="-25.00000000000003" as="sourcePoint" />
            <mxPoint x="41.879999999999995" y="28.680000000000064" as="targetPoint" />
            <Array as="points">
              <mxPoint x="42" y="1.4800000000000182" />
              <mxPoint x="42" y="1.4800000000000182" />
            </Array>
            <mxPoint as="offset" />
          </mxGeometry>
        </mxCell>
        <mxCell id="6n9kSi0VYIb2uczXsFoc-64" value="&lt;b&gt;5a&lt;/b&gt;" style="edgeLabel;html=1;align=center;verticalAlign=middle;resizable=0;points=[];fontSize=16;" parent="6n9kSi0VYIb2uczXsFoc-34" vertex="1" connectable="0">
          <mxGeometry x="-0.2894" y="1" relative="1" as="geometry">
            <mxPoint x="10" y="6" as="offset" />
          </mxGeometry>
        </mxCell>
        <mxCell id="6n9kSi0VYIb2uczXsFoc-62" value="" style="endArrow=classic;html=1;rounded=0;fontSize=16;fillColor=#00CC00;entryX=0;entryY=0.75;entryDx=0;entryDy=0;exitX=0.25;exitY=1;exitDx=0;exitDy=0;" parent="6n9kSi0VYIb2uczXsFoc-8" source="6n9kSi0VYIb2uczXsFoc-23" target="6n9kSi0VYIb2uczXsFoc-16" edge="1">
          <mxGeometry width="50" height="50" relative="1" as="geometry">
            <mxPoint x="-27" y="139" as="sourcePoint" />
            <mxPoint x="23" y="89" as="targetPoint" />
            <Array as="points">
              <mxPoint x="43" y="149" />
            </Array>
          </mxGeometry>
        </mxCell>
        <mxCell id="6n9kSi0VYIb2uczXsFoc-63" value="5b" style="edgeLabel;html=1;align=center;verticalAlign=middle;resizable=0;points=[];fontSize=16;fontStyle=1" parent="6n9kSi0VYIb2uczXsFoc-62" vertex="1" connectable="0">
          <mxGeometry x="-0.3135" relative="1" as="geometry">
            <mxPoint x="12" y="-17" as="offset" />
          </mxGeometry>
        </mxCell>
        <mxCell id="6n9kSi0VYIb2uczXsFoc-4" value="IDS Connector Core" style="swimlane;startSize=23;" parent="6n9kSi0VYIb2uczXsFoc-1" vertex="1">
          <mxGeometry x="30" y="60" width="360" height="200" as="geometry" />
        </mxCell>
        <mxCell id="6n9kSi0VYIb2uczXsFoc-13" value="Routing Logic" style="rounded=0;whiteSpace=wrap;html=1;dashed=1;" parent="6n9kSi0VYIb2uczXsFoc-4" vertex="1">
          <mxGeometry y="60" width="60" height="60" as="geometry" />
        </mxCell>
        <mxCell id="6n9kSi0VYIb2uczXsFoc-11" value="&lt;font face=&quot;Verdana&quot; color=&quot;#ffffff&quot; size=&quot;1&quot;&gt;&lt;b style=&quot;font-size: 12px&quot;&gt;IDS PEP&lt;/b&gt;&lt;/font&gt;" style="rounded=1;whiteSpace=wrap;html=1;fillColor=#E2001A;strokeColor=#E2001A;" parent="6n9kSi0VYIb2uczXsFoc-4" vertex="1">
          <mxGeometry x="259" y="70" width="90" height="40" as="geometry" />
        </mxCell>
        <mxCell id="6n9kSi0VYIb2uczXsFoc-24" value="&lt;b style=&quot;color: rgb(255 , 255 , 255) ; font-family: &amp;#34;verdana&amp;#34;&quot;&gt;&lt;font style=&quot;font-size: 12px&quot;&gt;Locale PIP&lt;/font&gt;&lt;/b&gt;" style="rounded=1;whiteSpace=wrap;html=1;fillColor=#F29400;strokeColor=#179C7D;" parent="6n9kSi0VYIb2uczXsFoc-4" vertex="1">
          <mxGeometry x="20" y="155" width="90" height="40" as="geometry" />
        </mxCell>
        <mxCell id="6n9kSi0VYIb2uczXsFoc-12" value="" style="shape=flexArrow;endArrow=classic;html=1;rounded=0;fillColor=#00CC00;exitX=1;exitY=0.5;exitDx=0;exitDy=0;" parent="6n9kSi0VYIb2uczXsFoc-4" edge="1">
          <mxGeometry width="50" height="50" relative="1" as="geometry">
            <mxPoint x="60" y="94" as="sourcePoint" />
            <mxPoint x="262" y="94" as="targetPoint" />
            <Array as="points" />
          </mxGeometry>
        </mxCell>
        <mxCell id="6n9kSi0VYIb2uczXsFoc-50" value="&lt;font style=&quot;font-size: 16px&quot;&gt;2&lt;/font&gt;" style="edgeLabel;html=1;align=center;verticalAlign=middle;resizable=0;points=[];fontSize=15;labelBorderColor=none;fontStyle=1" parent="6n9kSi0VYIb2uczXsFoc-12" vertex="1" connectable="0">
          <mxGeometry x="-0.3366" y="3" relative="1" as="geometry">
            <mxPoint x="-35" y="-15" as="offset" />
          </mxGeometry>
        </mxCell>
        <mxCell id="6n9kSi0VYIb2uczXsFoc-5" value="IDS App" style="swimlane;" parent="6n9kSi0VYIb2uczXsFoc-1" vertex="1">
          <mxGeometry x="540" y="90" width="100" height="140" as="geometry" />
        </mxCell>
        <mxCell id="6n9kSi0VYIb2uczXsFoc-9" value="" style="shape=flexArrow;endArrow=classic;html=1;rounded=0;fillColor=#00CC00;" parent="6n9kSi0VYIb2uczXsFoc-1" edge="1">
          <mxGeometry width="50" height="50" relative="1" as="geometry">
            <mxPoint x="-29" y="154.5" as="sourcePoint" />
            <mxPoint x="31" y="154.5" as="targetPoint" />
          </mxGeometry>
        </mxCell>
        <mxCell id="6n9kSi0VYIb2uczXsFoc-49" value="1" style="edgeLabel;html=1;align=center;verticalAlign=middle;resizable=0;points=[];fontSize=16;fontStyle=1;labelBorderColor=none;" parent="6n9kSi0VYIb2uczXsFoc-9" vertex="1" connectable="0">
          <mxGeometry x="-0.3778" y="1" relative="1" as="geometry">
            <mxPoint y="-17" as="offset" />
          </mxGeometry>
        </mxCell>
        <mxCell id="6n9kSi0VYIb2uczXsFoc-27" value="&lt;font style=&quot;font-size: 16px&quot;&gt;&lt;b&gt;3a&lt;/b&gt;&lt;/font&gt;" style="endArrow=classic;html=1;rounded=0;fontSize=12;fillColor=#00CC00;exitX=0.25;exitY=1;exitDx=0;exitDy=0;entryX=0.25;entryY=0;entryDx=0;entryDy=0;" parent="6n9kSi0VYIb2uczXsFoc-1" source="6n9kSi0VYIb2uczXsFoc-11" target="6n9kSi0VYIb2uczXsFoc-15" edge="1">
          <mxGeometry x="0.0011" y="11" width="50" height="50" relative="1" as="geometry">
            <mxPoint x="340" y="190" as="sourcePoint" />
            <mxPoint x="390" y="140" as="targetPoint" />
            <mxPoint as="offset" />
          </mxGeometry>
        </mxCell>
        <mxCell id="6n9kSi0VYIb2uczXsFoc-28" value="" style="endArrow=classic;html=1;rounded=0;fontSize=12;fillColor=#00CC00;entryX=0.75;entryY=1;entryDx=0;entryDy=0;exitX=0.75;exitY=0;exitDx=0;exitDy=0;" parent="6n9kSi0VYIb2uczXsFoc-1" source="6n9kSi0VYIb2uczXsFoc-15" target="6n9kSi0VYIb2uczXsFoc-11" edge="1">
          <mxGeometry width="50" height="50" relative="1" as="geometry">
            <mxPoint x="340" y="190" as="sourcePoint" />
            <mxPoint x="390" y="140" as="targetPoint" />
          </mxGeometry>
        </mxCell>
        <mxCell id="6n9kSi0VYIb2uczXsFoc-52" value="6b" style="edgeLabel;html=1;align=center;verticalAlign=middle;resizable=0;points=[];fontSize=16;fontStyle=1" parent="6n9kSi0VYIb2uczXsFoc-28" vertex="1" connectable="0">
          <mxGeometry x="0.1592" y="1" relative="1" as="geometry">
            <mxPoint x="13" y="11" as="offset" />
          </mxGeometry>
        </mxCell>
        <mxCell id="6n9kSi0VYIb2uczXsFoc-32" value="" style="edgeStyle=orthogonalEdgeStyle;rounded=0;orthogonalLoop=1;jettySize=auto;html=1;exitX=0.768;exitY=-0.008;exitDx=0;exitDy=0;fontSize=12;fillColor=#00CC00;entryX=0.77;entryY=0.974;entryDx=0;entryDy=0;exitPerimeter=0;entryPerimeter=0;" parent="6n9kSi0VYIb2uczXsFoc-1" source="6n9kSi0VYIb2uczXsFoc-23" target="6n9kSi0VYIb2uczXsFoc-24" edge="1">
          <mxGeometry x="-0.3078" y="-14" relative="1" as="geometry">
            <mxPoint x="140" y="260" as="targetPoint" />
            <mxPoint as="offset" />
          </mxGeometry>
        </mxCell>
        <mxCell id="6n9kSi0VYIb2uczXsFoc-65" value="&lt;b&gt;4a&lt;/b&gt;" style="edgeLabel;html=1;align=center;verticalAlign=middle;resizable=0;points=[];fontSize=16;" parent="6n9kSi0VYIb2uczXsFoc-32" vertex="1" connectable="0">
          <mxGeometry x="0.3556" relative="1" as="geometry">
            <mxPoint x="11" y="9" as="offset" />
          </mxGeometry>
        </mxCell>
        <mxCell id="6n9kSi0VYIb2uczXsFoc-53" value="" style="shape=flexArrow;endArrow=classic;html=1;rounded=0;fillColor=#00CC00;" parent="6n9kSi0VYIb2uczXsFoc-1" edge="1">
          <mxGeometry width="50" height="50" relative="1" as="geometry">
            <mxPoint x="379" y="153" as="sourcePoint" />
            <mxPoint x="543" y="153" as="targetPoint" />
            <Array as="points" />
          </mxGeometry>
        </mxCell>
        <mxCell id="6n9kSi0VYIb2uczXsFoc-54" value="&lt;font style=&quot;font-size: 16px&quot;&gt;7&lt;/font&gt;" style="edgeLabel;html=1;align=center;verticalAlign=middle;resizable=0;points=[];fontSize=15;labelBorderColor=none;fontStyle=1" parent="6n9kSi0VYIb2uczXsFoc-53" vertex="1" connectable="0">
          <mxGeometry x="-0.3366" y="3" relative="1" as="geometry">
            <mxPoint x="-35" y="-15" as="offset" />
          </mxGeometry>
        </mxCell>
        <mxCell id="6n9kSi0VYIb2uczXsFoc-3" value="Clearing House" style="swimlane;dashed=1;" parent="1" vertex="1">
          <mxGeometry x="559" y="150" width="110" height="90" as="geometry" />
        </mxCell>
        <mxCell id="6n9kSi0VYIb2uczXsFoc-66" value="" style="endArrow=classic;html=1;rounded=0;fontSize=14;fillColor=#00CC00;exitX=0.704;exitY=-0.001;exitDx=0;exitDy=0;exitPerimeter=0;" parent="1" edge="1">
          <mxGeometry width="50" height="50" relative="1" as="geometry">
            <mxPoint x="634.36" y="368.9599999999999" as="sourcePoint" />
            <mxPoint x="634" y="240" as="targetPoint" />
          </mxGeometry>
        </mxCell>
        <mxCell id="6n9kSi0VYIb2uczXsFoc-70" value="8c" style="edgeLabel;html=1;align=center;verticalAlign=middle;resizable=0;points=[];fontSize=16;fontStyle=1" parent="6n9kSi0VYIb2uczXsFoc-66" vertex="1" connectable="0">
          <mxGeometry x="0.3331" y="-1" relative="1" as="geometry">
            <mxPoint x="10" y="37" as="offset" />
          </mxGeometry>
        </mxCell>
        <mxCell id="6n9kSi0VYIb2uczXsFoc-67" value="" style="endArrow=classic;html=1;rounded=0;fontSize=14;fillColor=#00CC00;" parent="1" edge="1">
          <mxGeometry width="50" height="50" relative="1" as="geometry">
            <mxPoint x="590" y="240" as="sourcePoint" />
            <mxPoint x="590" y="370" as="targetPoint" />
          </mxGeometry>
        </mxCell>
        <mxCell id="6n9kSi0VYIb2uczXsFoc-71" value="9a" style="edgeLabel;html=1;align=center;verticalAlign=middle;resizable=0;points=[];fontSize=16;fontStyle=1" parent="6n9kSi0VYIb2uczXsFoc-67" vertex="1" connectable="0">
          <mxGeometry x="-0.2359" y="3" relative="1" as="geometry">
            <mxPoint x="8" y="30" as="offset" />
          </mxGeometry>
        </mxCell>
        <mxCell id="PgouEFVK102QuYyTmVvM-1" value="ParIS" style="swimlane;dashed=1;" vertex="1" parent="1">
          <mxGeometry x="220" y="470" width="110" height="90" as="geometry" />
        </mxCell>
      </root>
    </mxGraphModel>
  </diagram>
  <diagram id="x9Ql52UNM8yiuvynAj79" name="Page-2">
    <mxGraphModel dx="1483" dy="857" grid="1" gridSize="10" guides="1" tooltips="1" connect="1" arrows="1" fold="1" page="1" pageScale="1" pageWidth="827" pageHeight="1169" math="0" shadow="0">
      <root>
        <mxCell id="0" />
        <mxCell id="1" parent="0" />
        <mxCell id="mEAZGtmhkRdFNXlSCPX2-1" value="Data Usage Control&lt;br&gt;" style="shape=umlFrame;whiteSpace=wrap;html=1;fontSize=12;width=120;height=60;fontStyle=1" vertex="1" parent="1">
          <mxGeometry x="10" width="1260" height="720" as="geometry" />
        </mxCell>
        <mxCell id="mEAZGtmhkRdFNXlSCPX2-2" value="IDS Connector Core" style="shape=umlLifeline;perimeter=lifelinePerimeter;whiteSpace=wrap;html=1;container=1;collapsible=0;recursiveResize=0;outlineConnect=0;fontSize=12;fontStyle=1" vertex="1" parent="1">
          <mxGeometry x="170" y="41" width="100" height="679" as="geometry" />
        </mxCell>
        <mxCell id="0U4tIAvPEvIDAvjAow0L-4" value="" style="html=1;points=[];perimeter=orthogonalPerimeter;labelBackgroundColor=none;fontSize=12;fontColor=#FFFFFF;" vertex="1" parent="mEAZGtmhkRdFNXlSCPX2-2">
          <mxGeometry x="45" y="154" width="10" height="356" as="geometry" />
        </mxCell>
        <mxCell id="mEAZGtmhkRdFNXlSCPX2-5" value="IDS PEP" style="shape=umlLifeline;perimeter=lifelinePerimeter;whiteSpace=wrap;html=1;container=1;collapsible=0;recursiveResize=0;outlineConnect=0;fontSize=12;fillColor=#E2001A;fontColor=#FFFFFF;fontStyle=1" vertex="1" parent="1">
          <mxGeometry x="303" y="40" width="100" height="680" as="geometry" />
        </mxCell>
        <mxCell id="0U4tIAvPEvIDAvjAow0L-1" value="" style="html=1;points=[];perimeter=orthogonalPerimeter;labelBackgroundColor=none;fontSize=12;fontColor=#FFFFFF;" vertex="1" parent="mEAZGtmhkRdFNXlSCPX2-5">
          <mxGeometry x="45" y="170" width="10" height="250" as="geometry" />
        </mxCell>
        <mxCell id="mEAZGtmhkRdFNXlSCPX2-6" value="PEP" style="shape=umlLifeline;perimeter=lifelinePerimeter;whiteSpace=wrap;html=1;container=1;collapsible=0;recursiveResize=0;outlineConnect=0;fontSize=12;fillColor=#E2001A;fontColor=#FFFFFF;fontStyle=1" vertex="1" parent="1">
          <mxGeometry x="403" y="40" width="100" height="680" as="geometry" />
        </mxCell>
        <mxCell id="0U4tIAvPEvIDAvjAow0L-7" value="" style="html=1;points=[];perimeter=orthogonalPerimeter;labelBackgroundColor=none;fontSize=12;fontColor=#000000;" vertex="1" parent="mEAZGtmhkRdFNXlSCPX2-6">
          <mxGeometry x="41" y="190" width="10" height="220" as="geometry" />
        </mxCell>
        <mxCell id="mEAZGtmhkRdFNXlSCPX2-7" value="PDP" style="shape=umlLifeline;perimeter=lifelinePerimeter;whiteSpace=wrap;html=1;container=1;collapsible=0;recursiveResize=0;outlineConnect=0;fontSize=12;labelBackgroundColor=none;fillColor=#179C7D;fontColor=#FFFFFF;fontStyle=1" vertex="1" parent="1">
          <mxGeometry x="511" y="40" width="100" height="680" as="geometry" />
        </mxCell>
        <mxCell id="rVcEPZtyNzbPz_mNacNh-1" value="" style="html=1;points=[];perimeter=orthogonalPerimeter;labelBackgroundColor=none;fontSize=12;fontColor=#000000;" vertex="1" parent="mEAZGtmhkRdFNXlSCPX2-7">
          <mxGeometry x="45" y="210" width="10" height="120" as="geometry" />
        </mxCell>
        <mxCell id="rVcEPZtyNzbPz_mNacNh-13" value="" style="html=1;points=[];perimeter=orthogonalPerimeter;labelBackgroundColor=none;fontSize=12;fontColor=#000000;" vertex="1" parent="mEAZGtmhkRdFNXlSCPX2-7">
          <mxGeometry x="45" y="350" width="10" height="130" as="geometry" />
        </mxCell>
        <mxCell id="rVcEPZtyNzbPz_mNacNh-14" value="evaluation" style="edgeStyle=orthogonalEdgeStyle;html=1;align=left;spacingLeft=2;endArrow=block;rounded=0;fontSize=12;fontColor=#000000;exitX=0.44;exitY=0.991;exitDx=0;exitDy=0;exitPerimeter=0;" edge="1" parent="mEAZGtmhkRdFNXlSCPX2-7" source="rVcEPZtyNzbPz_mNacNh-1">
          <mxGeometry relative="1" as="geometry">
            <mxPoint x="81" y="340" as="sourcePoint" />
            <Array as="points">
              <mxPoint x="49" y="330" />
              <mxPoint x="111" y="330" />
              <mxPoint x="111" y="360" />
              <mxPoint x="55" y="360" />
            </Array>
            <mxPoint x="49" y="360" as="targetPoint" />
          </mxGeometry>
        </mxCell>
        <mxCell id="mEAZGtmhkRdFNXlSCPX2-8" value="Locale PIP" style="fillColor=#F29400;shape=umlLifeline;perimeter=lifelinePerimeter;whiteSpace=wrap;html=1;container=1;collapsible=0;recursiveResize=0;outlineConnect=0;fontSize=12;fontColor=#FFFFFF;fontStyle=1" vertex="1" parent="1">
          <mxGeometry x="622" y="40" width="100" height="680" as="geometry" />
        </mxCell>
        <mxCell id="rVcEPZtyNzbPz_mNacNh-4" value="" style="html=1;points=[];perimeter=orthogonalPerimeter;labelBackgroundColor=none;fontSize=12;fontColor=#000000;" vertex="1" parent="mEAZGtmhkRdFNXlSCPX2-8">
          <mxGeometry x="45" y="215" width="10" height="95" as="geometry" />
        </mxCell>
        <mxCell id="mEAZGtmhkRdFNXlSCPX2-9" value="IDS Locale PIP" style="shape=umlLifeline;perimeter=lifelinePerimeter;whiteSpace=wrap;html=1;container=1;collapsible=0;recursiveResize=0;outlineConnect=0;fontSize=12;fillColor=#F29400;fontColor=#FFFFFF;fontStyle=1" vertex="1" parent="1">
          <mxGeometry x="722" y="40" width="100" height="680" as="geometry" />
        </mxCell>
        <mxCell id="rVcEPZtyNzbPz_mNacNh-7" value="" style="html=1;points=[];perimeter=orthogonalPerimeter;labelBackgroundColor=none;fontSize=12;fontColor=#000000;" vertex="1" parent="mEAZGtmhkRdFNXlSCPX2-9">
          <mxGeometry x="45" y="216" width="10" height="84" as="geometry" />
        </mxCell>
        <mxCell id="mEAZGtmhkRdFNXlSCPX2-10" value="Log PXP" style="shape=umlLifeline;perimeter=lifelinePerimeter;whiteSpace=wrap;html=1;container=1;collapsible=0;recursiveResize=0;outlineConnect=0;fontSize=12;fontColor=#FFFFFF;fillColor=#771C2C;fontStyle=1" vertex="1" parent="1">
          <mxGeometry x="930" y="40" width="100" height="680" as="geometry" />
        </mxCell>
        <mxCell id="mEAZGtmhkRdFNXlSCPX2-11" value="IDS Log PXP" style="shape=umlLifeline;perimeter=lifelinePerimeter;whiteSpace=wrap;html=1;container=1;collapsible=0;recursiveResize=0;outlineConnect=0;fontSize=12;fillColor=#771C2C;fontColor=#FFFFFF;fontStyle=1" vertex="1" parent="1">
          <mxGeometry x="1030" y="40" width="100" height="680" as="geometry" />
        </mxCell>
        <mxCell id="mEAZGtmhkRdFNXlSCPX2-13" value="ParIS" style="shape=umlLifeline;perimeter=lifelinePerimeter;whiteSpace=wrap;html=1;container=1;collapsible=0;recursiveResize=0;outlineConnect=0;fontSize=12;fontStyle=1" vertex="1" parent="1">
          <mxGeometry x="822" y="40" width="100" height="680" as="geometry" />
        </mxCell>
        <mxCell id="mEAZGtmhkRdFNXlSCPX2-14" value="IDS APP" style="shape=umlLifeline;perimeter=lifelinePerimeter;whiteSpace=wrap;html=1;container=1;collapsible=0;recursiveResize=0;outlineConnect=0;fontSize=12;" vertex="1" parent="1">
          <mxGeometry x="20" y="220" width="100" height="500" as="geometry" />
        </mxCell>
        <mxCell id="rVcEPZtyNzbPz_mNacNh-33" value="" style="html=1;points=[];perimeter=orthogonalPerimeter;labelBackgroundColor=none;fontSize=12;fontColor=#000000;" vertex="1" parent="mEAZGtmhkRdFNXlSCPX2-14">
          <mxGeometry x="40" y="240" width="10" height="70" as="geometry" />
        </mxCell>
        <mxCell id="mEAZGtmhkRdFNXlSCPX2-15" value="Clearing House" style="shape=umlLifeline;perimeter=lifelinePerimeter;whiteSpace=wrap;html=1;container=1;collapsible=0;recursiveResize=0;outlineConnect=0;fontSize=12;fontStyle=1" vertex="1" parent="1">
          <mxGeometry x="1130" y="40" width="100" height="680" as="geometry" />
        </mxCell>
        <mxCell id="rVcEPZtyNzbPz_mNacNh-30" value="" style="html=1;points=[];perimeter=orthogonalPerimeter;labelBackgroundColor=none;fontSize=12;fontColor=#000000;" vertex="1" parent="mEAZGtmhkRdFNXlSCPX2-15">
          <mxGeometry x="45" y="390" width="10" height="80" as="geometry" />
        </mxCell>
        <mxCell id="0U4tIAvPEvIDAvjAow0L-5" value="&lt;font color=&quot;#000000&quot;&gt;message to IDS APP&lt;/font&gt;" style="html=1;verticalAlign=bottom;startArrow=oval;startFill=1;endArrow=block;startSize=8;rounded=0;fontSize=12;fontColor=#FFFFFF;entryX=0.2;entryY=0.014;entryDx=0;entryDy=0;entryPerimeter=0;" edge="1" parent="1" target="0U4tIAvPEvIDAvjAow0L-4">
          <mxGeometry width="60" relative="1" as="geometry">
            <mxPoint x="70" y="200" as="sourcePoint" />
            <mxPoint x="130" y="200" as="targetPoint" />
          </mxGeometry>
        </mxCell>
        <mxCell id="0U4tIAvPEvIDAvjAow0L-3" value="return" style="html=1;verticalAlign=bottom;endArrow=open;dashed=1;endSize=8;exitX=0;exitY=0.95;rounded=0;fontSize=12;fontColor=#FFFFFF;" edge="1" source="0U4tIAvPEvIDAvjAow0L-1" parent="1" target="0U4tIAvPEvIDAvjAow0L-4">
          <mxGeometry relative="1" as="geometry">
            <mxPoint x="270" y="196" as="targetPoint" />
          </mxGeometry>
        </mxCell>
        <mxCell id="rVcEPZtyNzbPz_mNacNh-18" value="return &lt;br&gt;new message" style="edgeLabel;html=1;align=center;verticalAlign=middle;resizable=0;points=[];fontSize=12;fontColor=#000000;" vertex="1" connectable="0" parent="0U4tIAvPEvIDAvjAow0L-3">
          <mxGeometry x="-0.4699" y="-1" relative="1" as="geometry">
            <mxPoint x="-25" y="-16" as="offset" />
          </mxGeometry>
        </mxCell>
        <mxCell id="0U4tIAvPEvIDAvjAow0L-2" value="dispatch" style="html=1;verticalAlign=bottom;endArrow=block;entryX=0;entryY=0;rounded=0;fontSize=12;fontColor=#FFFFFF;" edge="1" target="0U4tIAvPEvIDAvjAow0L-1" parent="1" source="0U4tIAvPEvIDAvjAow0L-4">
          <mxGeometry relative="1" as="geometry">
            <mxPoint x="270" y="120" as="sourcePoint" />
          </mxGeometry>
        </mxCell>
        <mxCell id="0U4tIAvPEvIDAvjAow0L-6" value="intercept(message)" style="edgeLabel;html=1;align=center;verticalAlign=middle;resizable=0;points=[];fontSize=12;fontColor=#000000;" vertex="1" connectable="0" parent="0U4tIAvPEvIDAvjAow0L-2">
          <mxGeometry x="-0.1818" y="1" relative="1" as="geometry">
            <mxPoint x="5" y="1" as="offset" />
          </mxGeometry>
        </mxCell>
        <mxCell id="0U4tIAvPEvIDAvjAow0L-8" value="callPEP&lt;br&gt;(dataForDecision)" style="html=1;verticalAlign=bottom;endArrow=block;entryX=0;entryY=0;rounded=0;fontSize=12;fontColor=#000000;" edge="1" parent="1">
          <mxGeometry x="0.2093" relative="1" as="geometry">
            <mxPoint x="358" y="230.00000000000068" as="sourcePoint" />
            <mxPoint x="444" y="230.00000000000068" as="targetPoint" />
            <mxPoint as="offset" />
          </mxGeometry>
        </mxCell>
        <mxCell id="0U4tIAvPEvIDAvjAow0L-9" value="return &lt;br&gt;data" style="html=1;verticalAlign=bottom;endArrow=open;dashed=1;endSize=8;exitX=0.12;exitY=0.963;rounded=0;fontSize=12;fontColor=#000000;exitDx=0;exitDy=0;exitPerimeter=0;" edge="1" source="0U4tIAvPEvIDAvjAow0L-7" parent="1" target="0U4tIAvPEvIDAvjAow0L-1">
          <mxGeometry relative="1" as="geometry">
            <mxPoint x="358" y="491.5" as="targetPoint" />
            <mxPoint x="444" y="491.5" as="sourcePoint" />
          </mxGeometry>
        </mxCell>
        <mxCell id="rVcEPZtyNzbPz_mNacNh-2" value="callPDP&lt;br&gt;(dataForDecision)" style="html=1;verticalAlign=bottom;endArrow=block;entryX=0;entryY=0;rounded=0;fontSize=12;fontColor=#000000;" edge="1" parent="1">
          <mxGeometry relative="1" as="geometry">
            <mxPoint x="453.5" y="250" as="sourcePoint" />
            <mxPoint x="557" y="250" as="targetPoint" />
          </mxGeometry>
        </mxCell>
        <mxCell id="rVcEPZtyNzbPz_mNacNh-3" value="return decision" style="html=1;verticalAlign=bottom;endArrow=open;dashed=1;endSize=8;exitX=0.12;exitY=0.956;rounded=0;fontSize=12;fontColor=#000000;exitDx=0;exitDy=0;exitPerimeter=0;" edge="1" parent="1">
          <mxGeometry x="0.0926" y="2" relative="1" as="geometry">
            <mxPoint x="452.5" y="439.03999999999996" as="targetPoint" />
            <mxPoint x="557.2" y="439.03999999999996" as="sourcePoint" />
            <mxPoint as="offset" />
          </mxGeometry>
        </mxCell>
        <mxCell id="rVcEPZtyNzbPz_mNacNh-5" value="getLocale&lt;br&gt;(targetPipData)" style="html=1;verticalAlign=bottom;endArrow=block;entryX=0.22;entryY=-0.005;rounded=0;fontSize=12;fontColor=#000000;entryDx=0;entryDy=0;entryPerimeter=0;" edge="1" target="rVcEPZtyNzbPz_mNacNh-4" parent="1">
          <mxGeometry relative="1" as="geometry">
            <mxPoint x="568" y="255" as="sourcePoint" />
            <mxPoint x="665" y="255.0000000000001" as="targetPoint" />
          </mxGeometry>
        </mxCell>
        <mxCell id="rVcEPZtyNzbPz_mNacNh-6" value="return locale" style="html=1;verticalAlign=bottom;endArrow=open;dashed=1;endSize=8;exitX=0;exitY=0.95;rounded=0;fontSize=12;fontColor=#000000;entryX=0.4;entryY=0.783;entryDx=0;entryDy=0;entryPerimeter=0;" edge="1" source="rVcEPZtyNzbPz_mNacNh-4" parent="1" target="rVcEPZtyNzbPz_mNacNh-1">
          <mxGeometry relative="1" as="geometry">
            <mxPoint x="597" y="326" as="targetPoint" />
          </mxGeometry>
        </mxCell>
        <mxCell id="rVcEPZtyNzbPz_mNacNh-8" value="getLocale&lt;br&gt;(urlToParis)" style="html=1;verticalAlign=bottom;endArrow=block;entryX=0.38;entryY=0.013;rounded=0;fontSize=12;fontColor=#000000;exitX=0.94;exitY=0.072;exitDx=0;exitDy=0;exitPerimeter=0;entryDx=0;entryDy=0;entryPerimeter=0;" edge="1" target="rVcEPZtyNzbPz_mNacNh-7" parent="1">
          <mxGeometry relative="1" as="geometry">
            <mxPoint x="676.4000000000001" y="256.84000000000003" as="sourcePoint" />
            <mxPoint x="767" y="251.0000000000001" as="targetPoint" />
          </mxGeometry>
        </mxCell>
        <mxCell id="rVcEPZtyNzbPz_mNacNh-9" value="return locale" style="html=1;verticalAlign=bottom;endArrow=open;dashed=1;endSize=8;rounded=0;fontSize=12;fontColor=#000000;" edge="1" parent="1">
          <mxGeometry relative="1" as="geometry">
            <mxPoint x="676" y="335" as="targetPoint" />
            <mxPoint x="766" y="335" as="sourcePoint" />
          </mxGeometry>
        </mxCell>
        <mxCell id="rVcEPZtyNzbPz_mNacNh-10" value="" style="html=1;points=[];perimeter=orthogonalPerimeter;labelBackgroundColor=none;fontSize=12;fontColor=#000000;" vertex="1" parent="1">
          <mxGeometry x="867" y="260" width="10" height="70" as="geometry" />
        </mxCell>
        <mxCell id="rVcEPZtyNzbPz_mNacNh-11" value="getLocale&lt;br&gt;(connectorId)" style="html=1;verticalAlign=bottom;endArrow=block;entryX=0;entryY=0;rounded=0;fontSize=12;fontColor=#000000;" edge="1" parent="1">
          <mxGeometry relative="1" as="geometry">
            <mxPoint x="777" y="261.0000000000001" as="sourcePoint" />
            <mxPoint x="867" y="261.0000000000001" as="targetPoint" />
          </mxGeometry>
        </mxCell>
        <mxCell id="rVcEPZtyNzbPz_mNacNh-12" value="return locale" style="html=1;verticalAlign=bottom;endArrow=open;dashed=1;endSize=8;exitX=0;exitY=0.95;rounded=0;fontSize=12;fontColor=#000000;" edge="1" source="rVcEPZtyNzbPz_mNacNh-10" parent="1" target="rVcEPZtyNzbPz_mNacNh-7">
          <mxGeometry relative="1" as="geometry">
            <mxPoint x="800" y="336" as="targetPoint" />
          </mxGeometry>
        </mxCell>
        <mxCell id="rVcEPZtyNzbPz_mNacNh-19" value="" style="html=1;points=[];perimeter=orthogonalPerimeter;labelBackgroundColor=none;fontSize=12;fontColor=#000000;" vertex="1" parent="1">
          <mxGeometry x="975" y="420" width="10" height="90" as="geometry" />
        </mxCell>
        <mxCell id="rVcEPZtyNzbPz_mNacNh-20" value="logUsage(targetPxpData)" style="html=1;verticalAlign=bottom;endArrow=block;entryX=0;entryY=0;rounded=0;fontSize=12;fontColor=#000000;" edge="1" target="rVcEPZtyNzbPz_mNacNh-19" parent="1" source="rVcEPZtyNzbPz_mNacNh-13">
          <mxGeometry x="-0.0024" relative="1" as="geometry">
            <mxPoint x="910" y="400" as="sourcePoint" />
            <mxPoint as="offset" />
          </mxGeometry>
        </mxCell>
        <mxCell id="rVcEPZtyNzbPz_mNacNh-21" value="return true" style="html=1;verticalAlign=bottom;endArrow=open;dashed=1;endSize=8;exitX=0;exitY=0.95;rounded=0;fontSize=12;fontColor=#000000;" edge="1" source="rVcEPZtyNzbPz_mNacNh-19" parent="1" target="rVcEPZtyNzbPz_mNacNh-13">
          <mxGeometry relative="1" as="geometry">
            <mxPoint x="910" y="476" as="targetPoint" />
          </mxGeometry>
        </mxCell>
        <mxCell id="rVcEPZtyNzbPz_mNacNh-27" value="" style="html=1;points=[];perimeter=orthogonalPerimeter;labelBackgroundColor=none;fontSize=12;fontColor=#000000;" vertex="1" parent="1">
          <mxGeometry x="1075" y="420" width="10" height="80" as="geometry" />
        </mxCell>
        <mxCell id="rVcEPZtyNzbPz_mNacNh-28" value="logUsage&lt;br&gt;(dataId,&lt;br&gt;urlToCh)" style="html=1;verticalAlign=bottom;endArrow=block;rounded=0;fontSize=12;fontColor=#000000;" edge="1" target="rVcEPZtyNzbPz_mNacNh-27" parent="1">
          <mxGeometry x="-0.0526" relative="1" as="geometry">
            <mxPoint x="985" y="424.0000000000001" as="sourcePoint" />
            <mxPoint x="1080" y="424.0000000000001" as="targetPoint" />
            <mxPoint as="offset" />
          </mxGeometry>
        </mxCell>
        <mxCell id="rVcEPZtyNzbPz_mNacNh-29" value="return true" style="html=1;verticalAlign=bottom;endArrow=open;dashed=1;endSize=8;exitX=0;exitY=0.95;rounded=0;fontSize=12;fontColor=#000000;" edge="1" parent="1">
          <mxGeometry relative="1" as="geometry">
            <mxPoint x="985" y="501" as="targetPoint" />
            <mxPoint x="1076" y="501" as="sourcePoint" />
          </mxGeometry>
        </mxCell>
        <mxCell id="rVcEPZtyNzbPz_mNacNh-31" value="logUsage&lt;br&gt;(dataId,&lt;br&gt;connectorId)" style="html=1;verticalAlign=bottom;endArrow=block;entryX=0;entryY=0;rounded=0;fontSize=12;fontColor=#000000;" edge="1" target="rVcEPZtyNzbPz_mNacNh-30" parent="1" source="rVcEPZtyNzbPz_mNacNh-27">
          <mxGeometry relative="1" as="geometry">
            <mxPoint x="1108" y="430" as="sourcePoint" />
          </mxGeometry>
        </mxCell>
        <mxCell id="rVcEPZtyNzbPz_mNacNh-32" value="return true" style="html=1;verticalAlign=bottom;endArrow=open;dashed=1;endSize=8;rounded=0;fontSize=12;fontColor=#000000;exitX=-0.16;exitY=0.548;exitDx=0;exitDy=0;exitPerimeter=0;" edge="1" parent="1">
          <mxGeometry relative="1" as="geometry">
            <mxPoint x="1086" y="492.8399999999999" as="targetPoint" />
            <mxPoint x="1176.4" y="492.8399999999999" as="sourcePoint" />
          </mxGeometry>
        </mxCell>
        <mxCell id="rVcEPZtyNzbPz_mNacNh-34" value="send(message)" style="html=1;verticalAlign=bottom;endArrow=block;entryX=0;entryY=0;rounded=0;fontSize=12;fontColor=#000000;" edge="1" target="rVcEPZtyNzbPz_mNacNh-33" parent="1" source="0U4tIAvPEvIDAvjAow0L-4">
          <mxGeometry relative="1" as="geometry">
            <mxPoint x="1270" y="505" as="sourcePoint" />
          </mxGeometry>
        </mxCell>
        <mxCell id="rVcEPZtyNzbPz_mNacNh-35" value="return" style="html=1;verticalAlign=bottom;endArrow=open;dashed=1;endSize=8;exitX=0;exitY=0.95;rounded=0;fontSize=12;fontColor=#000000;" edge="1" source="rVcEPZtyNzbPz_mNacNh-33" parent="1" target="0U4tIAvPEvIDAvjAow0L-4">
          <mxGeometry relative="1" as="geometry">
            <mxPoint x="1270" y="581" as="targetPoint" />
          </mxGeometry>
        </mxCell>
      </root>
    </mxGraphModel>
  </diagram>
</mxfile>
